<svg width="64" height="64" viewBox="0 0 64 64" fill="none" xmlns="http://www.w3.org/2000/svg">
<path d="M60.25 18.932H1.875C1.14275 18.1997 0.73225 17.7892 0 17.057V1.875C0.73225 1.14275 1.14275 0.73225 1.875 0H60.25C60.9823 0.73225 61.3927 1.14275 62.125 1.875V17.057C61.3927 17.7892 60.9823 18.1997 60.25 18.932Z" transform="translate(0.9375 44.1305)" fill="#FFB655"/>
<path d="M12.1804 0H3.67488C2.23975 1.43512 1.43512 2.23975 0 3.67487V5.667H14.3818V2.20125C13.522 1.34162 13.04 0.859625 12.1804 0Z" transform="translate(6.11145 38.4635)" fill="#E0E0E2"/>
<path d="M11.6496 0H3.67488C2.23975 1.43512 1.43512 2.23975 0 3.67487V5.667H17.3168C15.1035 3.45387 13.8626 2.21312 11.6496 0Z" transform="translate(20.4933 38.4635)" fill="#E0E0E2"/>
<path d="M8.5595 0H2.935C1.78875 1.14625 1.14612 1.78887 0 2.935V5.667H12.2284V3.66875C10.7955 2.23613 9.99225 1.43275 8.5595 0Z" transform="translate(44.8654 38.4635)" fill="#E0E0E2"/>
<path d="M3.38662 0H1.4675C0.894374 0.573125 0.573125 0.894374 0 1.4675V5.667H7.05537V3.66875C5.62262 2.23613 4.81937 1.43275 3.38662 0Z" transform="translate(37.8098 38.4635)" fill="#E0E0E2"/>
<path d="M19.6287 5.57C18.216 2.32075 14.4908 0 10.1175 0C4.52975 0 0 3.78862 0 8.46212C0 11.5669 1.99925 14.2811 4.97963 15.7535V12.0581C4.97588 12.055 4.972 12.0519 4.96825 12.0487C3.77962 11.0546 3.125 9.78075 3.125 8.46225H17.1101C17.1101 9.71925 16.5153 10.9355 15.4301 11.9075V15.6654C17.3514 14.672 18.8455 13.156 19.6289 11.3544H56.2234V5.57H19.6287Z" transform="translate(6.83911 0.9375)" fill="#FFB655"/>
<path d="M9.32762 12.7306V15.1118C9.32762 15.934 9.99412 16.6005 10.8164 16.6005C11.6386 16.6005 12.3051 15.934 12.3051 15.1118V3.44525C13.3904 2.47313 13.9851 1.25688 13.9851 0H0C0 1.31862 0.654625 2.59238 1.84325 3.5865C1.847 3.58963 1.85088 3.59275 1.85463 3.59587V29.0639H6.97713V12.7306C6.97713 12.0815 7.50325 11.5554 8.15238 11.5554C8.8015 11.5553 9.32762 12.0815 9.32762 12.7306Z" transform="translate(9.96399 9.39966)" fill="#D1E7F8"/>
<path d="M12.1418 1.75063C10.792 0.62175 8.96338 0 6.9925 0C5.02163 0 3.193 0.62175 1.84325 1.75063C0.654625 2.74475 0 4.0185 0 5.337H13.9851C13.985 4.01837 13.3304 2.74475 12.1418 1.75063Z" transform="translate(9.96411 4.0625)" fill="#EE8700"/>
<path d="M3.75 17.057V1.875C4.48225 1.14275 4.89275 0.73225 5.625 0H1.875C1.14275 0.73225 0.73225 1.14275 0 1.875V17.057L1.875 18.932H5.625C4.89275 18.1997 4.48225 17.7892 3.75 17.057Z" transform="translate(0.9375 44.1305)" fill="#FF7956"/>
<path d="M7.42488 0H3.67488L0 3.67487V5.667H3.75V3.67487C5.185 2.23975 5.98975 1.43512 7.42488 0Z" transform="translate(6.11145 38.4635)" fill="#C6C5CA"/>
<path d="M7.42487 0H3.67487L0 3.67487V5.667H3.75V3.67487C5.18512 2.23975 5.98975 1.43512 7.42487 0Z" transform="translate(20.4932 38.4635)" fill="#C6C5CA"/>
<path d="M6.685 0H2.935L0 2.935V5.667H3.75V2.935C4.89625 1.78887 5.53888 1.14625 6.685 0Z" transform="translate(44.8652 38.4635)" fill="#C6C5CA"/>
<path d="M4.302 0.915501L3.38662 0H1.4675L0 1.4675V5.667H3.75V1.4675L4.302 0.915501Z" transform="translate(37.8098 38.4635)" fill="#C6C5CA"/>
<path d="M4.45125 11.5636C3.59125 10.6559 3.125 9.57487 3.125 8.46212H3.75C3.75 4.3245 7.30062 0.880625 11.9924 0.145125C11.3847 0.049875 10.7581 0 10.1175 0C4.52975 0 0 3.78862 0 8.46212C0 11.5669 1.99925 14.2811 4.97963 15.7535V12.5086C4.78125 12.2044 4.6045 11.8889 4.45125 11.5636Z" transform="translate(6.83899 0.9375)" fill="#FF7956"/>
<path d="M3.75 3.44525C3.8745 3.33375 3.9925 3.21888 4.104 3.10125C4.13663 3.032 4.16825 2.96225 4.19875 2.89213H4.2925C5.03175 2.02963 5.43 1.0285 5.43 0H1.68C1.68 1.257 1.08512 2.47325 0 3.44525V7.20313C1.60162 6.375 2.90637 5.18363 3.75 3.7665V3.44525Z" transform="translate(22.2692 9.39966)" fill="#FF7956"/>
<path d="M5.59325 3.5865C4.40463 2.59238 3.75 1.3185 3.75 0H0C0 1.31862 0.654625 2.59238 1.84325 3.5865C1.847 3.58963 1.85088 3.59275 1.85463 3.59587V29.0639H5.60463V3.59587C5.60075 3.59275 5.597 3.58963 5.59325 3.5865Z" transform="translate(9.96411 9.39966)" fill="#9BC9FF"/>
<path d="M1.17525 0C0.526124 0 0 0.526124 0 1.17525V5.04237C0.0295 5.04412 0.0592487 5.04512 0.0892487 5.04512C0.911499 5.04512 1.578 4.37862 1.578 3.55637V0.0708733C1.45237 0.0251233 1.31675 0 1.17525 0Z" transform="translate(20.6912 20.9548)" fill="#9BC9FF"/>
<path d="M5.59325 1.75063C6.50188 0.990625 7.6275 0.460625 8.8675 0.19525C8.2655 0.066375 7.63663 0 6.9925 0C5.02163 0 3.193 0.62175 1.84325 1.75063C0.654625 2.74475 0 4.0185 0 5.337H3.75C3.74988 4.01837 4.4045 2.74475 5.59325 1.75063Z" transform="translate(9.96411 4.0625)" fill="#FF3501"/>
<path d="M1.875 0H0V1.875H1.875V0Z" transform="translate(23.71 55.7712)" fill="black"/>
<path d="M1.875 0H0V1.875H1.875V0Z" transform="translate(29.96 55.7712)" fill="black"/>
<path d="M1.875 0H0V1.875H1.875V0Z" transform="translate(26.835 55.7712)" fill="black"/>
<path d="M1.875 0H0V1.875H1.875V0Z" transform="translate(33.085 55.7712)" fill="black"/>
<path d="M1.875 0H0V1.875H1.875V0Z" transform="translate(6.10388 46.2476)" fill="black"/>
<path d="M1.875 0H0V1.875H1.875V0Z" transform="translate(9.22888 46.2476)" fill="black"/>
<path d="M1.875 0H0V1.875H1.875V0Z" transform="translate(2.97888 46.2476)" fill="black"/>
<path d="M1.875 0H0V1.875H1.875V0Z" transform="translate(39.2462 8.46252)" fill="black"/>
<path d="M1.875 0H0V1.875H1.875V0Z" transform="translate(36.1212 8.46252)" fill="black"/>
<path d="M1.875 0H0V1.875H1.875V0Z" transform="translate(32.9962 8.46252)" fill="black"/>
<path d="M58.0311 5.667V4.218L53.8131 0H47.412L44.4984 2.91362L41.5848 0H38.8891L36.8724 2.01675V4.34113L32.5312 0H23.7799L21.2301 2.54975L18.6804 0H9.398L5.174 4.22412V5.667H2.42412L0 8.09125V24.0499L2.42425 26.474H61.5759L64 24.0497V8.09125L61.5759 5.667H58.0311ZM48.1886 1.875H53.0365L56.1561 4.99463V5.667H45.8027V4.26088L48.1886 1.875ZM38.7474 2.79337L39.6657 1.875H40.8083L43.9279 4.99463V5.667H38.7475V2.79337H38.7474ZM24.5564 1.875H31.7545L35.5465 5.667H21.4306V5.00075L24.5564 1.875ZM7.04887 5.00075L10.1746 1.875H17.9035L19.5556 3.52712V5.667H7.04887V5.00075ZM62.125 18.2451H51.3381V20.1201H62.125V23.2733L60.7993 24.599H3.20075L1.875 23.2733V20.1201H9.68237V18.2451H1.875V13.831H17.4648V11.956H1.875V8.86775L3.20075 7.542H60.7991L62.125 8.86775V18.2451Z" transform="translate(0 37.526)" fill="black"/>
<path d="M5.28375 0H0V1.875H5.28375V0Z" transform="translate(24.8826 40.36)" fill="white"/>
<path d="M5.28375 0H0V1.875H5.28375V0Z" transform="translate(47.5237 40.36)" fill="black"/>
<path d="M4.07375 0H2.19875C2.19875 0.988875 1.828 1.43625 1.315 2.0555C0.729127 2.76262 0 3.64263 0 5.3075C0 6.97238 0.729127 7.85225 1.315 8.5595C1.828 9.17875 2.19875 9.62612 2.19875 10.615H4.07375C4.07375 8.95025 3.34463 8.07038 2.75875 7.36313C2.24575 6.74388 1.875 6.2965 1.875 5.3075C1.875 4.3185 2.24575 3.87112 2.75875 3.25187C3.34463 2.54462 4.07375 1.66475 4.07375 0Z" transform="translate(45.6658 24.9135)" fill="black"/>
<path d="M4.07375 0H2.19875C2.19875 0.988875 1.828 1.43625 1.315 2.0555C0.729124 2.76262 0 3.64263 0 5.3075C0 6.97238 0.729124 7.85225 1.315 8.5595C1.828 9.17875 2.19875 9.62612 2.19875 10.615H4.07375C4.07375 8.95025 3.34463 8.07038 2.75875 7.36313C2.24575 6.74388 1.875 6.2965 1.875 5.3075C1.875 4.3185 2.24575 3.87112 2.75875 3.25187C3.34463 2.54462 4.07375 1.66475 4.07375 0Z" transform="translate(38.0345 24.9135)" fill="black"/>
<path d="M4.07375 0H2.19875C2.19875 0.988875 1.828 1.43625 1.315 2.0555C0.729124 2.76262 0 3.64263 0 5.3075C0 6.97238 0.729124 7.85225 1.315 8.5595C1.828 9.17875 2.19875 9.62612 2.19875 10.615H4.07375C4.07375 8.95025 3.34462 8.07038 2.75875 7.36313C2.24562 6.74388 1.87488 6.2965 1.87488 5.3075C1.87488 4.3185 2.24562 3.87112 2.75875 3.25187C3.34462 2.54462 4.07375 1.66475 4.07375 0Z" transform="translate(30.4033 24.9135)" fill="black"/>
<path d="M1.875 0H0V1.875H1.875V0Z" transform="translate(58.6438 49.4824)" fill="white"/>
<path d="M12.1112 0H0V1.875H12.1112V0Z" transform="translate(42.1575 49.4824)" fill="white"/>
<path d="M1.875 0H0V1.875H1.875V0Z" transform="translate(55.5188 49.4824)" fill="white"/>
<path d="M9.6325 0H0V1.875H9.6325V0Z" transform="translate(44.865 8.46252)" fill="white"/>
<path d="M1.875 0H0V1.875H1.875V0Z" transform="translate(58.8726 8.46252)" fill="white"/>
<path d="M1.875 0H0V1.875H1.875V0Z" transform="translate(55.7476 8.46252)" fill="white"/>
<path d="M8.74487 0H0V1.875H8.74487V0Z" transform="translate(19.965 49.4825)" fill="black"/>
<path d="M1.875 0H0V1.875H1.875V0Z" transform="translate(14.3125 40.36)" fill="black"/>
<path d="M1.875 0H0V1.875H1.875V0Z" transform="translate(11.1875 40.36)" fill="black"/>
<path d="M0 0.937375C0 2.41088 0.655501 3.8235 1.85463 4.95487V27.5014H3.72963V6.25488C4.97675 6.87888 6.41813 7.21212 7.93013 7.21212C8.721 7.21212 9.49925 7.121 10.2434 6.941L9.80275 5.1185C9.20275 5.2635 8.57275 5.33712 7.93025 5.33712C6.17888 5.33712 4.56375 4.79288 3.3825 3.80488C2.70688 3.23975 2.24225 2.5755 2.02175 1.875H13.838C13.6324 2.52612 13.2161 3.14812 12.6172 3.6845L12.3053 3.964V16.0493C12.3053 16.3533 12.058 16.6005 11.754 16.6005C11.45 16.6005 11.2028 16.3531 11.2028 16.0493V13.6683C11.2028 12.5033 10.2549 11.5555 9.09 11.5555C7.92513 11.5555 6.97725 12.5033 6.97725 13.6683V27.5015H8.85225V13.6681C8.85225 13.537 8.959 13.4304 9.09 13.4304C9.221 13.4304 9.32775 13.5371 9.32775 13.6681V16.0491C9.32775 17.387 10.4161 18.4754 11.754 18.4754C13.0919 18.4754 14.1803 17.387 14.1803 16.0491V4.78388C15.2669 3.68238 15.8602 2.33075 15.8602 0.9375V0H0V0.937375Z" transform="translate(9.02649 8.46216)" fill="black"/>
<path d="M1.875 0H0V1.875H1.875V0Z" transform="translate(13.375 20.8438)" fill="white"/>
<path d="M1.875 0H0V6.0625H1.875V0Z" transform="translate(13.375 23.9688)" fill="white"/>
<path d="M1.875 0H0V1.875H1.875V0Z" transform="translate(13.375 17.7188)" fill="white"/>
<path d="M3.9375 0H0V1.875H3.9375V0Z" transform="translate(15.25 10.9688)" fill="black"/>
<path d="M2.3785 3.40725C3.55988 2.41925 5.175 1.875 6.92638 1.875C8.67775 1.875 10.2929 2.41925 11.4741 3.40725C11.8075 3.686 12.0926 3.99175 12.3216 4.31575L13.8527 3.2335C13.5302 2.77737 13.1346 2.35187 12.6771 1.96912C11.159 0.69925 9.11675 0 6.92638 0C4.736 0 2.69375 0.69925 1.17563 1.969C0.718126 2.35175 0.322625 2.77713 0 3.23338L1.53113 4.31563C1.76013 3.99163 2.04525 3.686 2.3785 3.40725Z" transform="translate(10.0303 3.125)" fill="black"/>
<path d="M21.1559 5.57013C19.3953 2.21475 15.4229 0 11.055 0C4.95925 0 0 4.21662 0 9.3995C0 11.6976 0.98275 13.9084 2.76725 15.6249L4.067 14.2735C2.65337 12.914 1.87488 11.183 1.87488 9.3995C1.87488 5.2505 5.99313 1.875 11.055 1.875C14.9278 1.875 18.4046 3.88687 19.7065 6.88137L19.9515 7.44513H56.2234V11.3541H19.9515L19.7065 11.9179C19.3598 12.7153 18.8528 13.4559 18.1996 14.119L19.5355 15.4346C20.197 14.7631 20.7404 14.0234 21.1562 13.229H58.0984V5.57013H21.1559Z" transform="translate(5.90161)" fill="black"/>
</svg>
