<svg width="36" height="64" viewBox="0 0 36 64" fill="none" xmlns="http://www.w3.org/2000/svg">
<path d="M14.3197 17.283H0V7.15987C0 3.20562 3.20575 0 7.15988 0C11.1141 0 14.3197 3.20562 14.3197 7.15987V17.283Z" transform="translate(10.6311 0.9375)" fill="#787680"/>
<path d="M28.2203 0C31.6083 13.1885 31.6084 27.248 28.2206 40.4365L28.2203 40.4375H2.54094L2.54069 40.4365C-0.846937 27.248 -0.846938 13.1885 2.54094 0H28.2203Z" transform="translate(2.41089 22.625)" fill="#FFB655"/>
<path d="M6.29103 0H2.54103C-0.846969 13.1885 -0.846969 27.248 2.54078 40.4365L2.54103 40.4375H6.29103L6.29078 40.4365C2.90316 27.248 2.90316 13.1885 6.29103 0Z" transform="translate(2.41064 22.625)" fill="#FF7956"/>
<path d="M28.5656 0C28.8689 1.5675 29.1248 3.14413 29.3347 4.727H0C0.210125 3.144 0.465875 1.56737 0.769125 0H28.5656Z" transform="translate(3.12402 27.34)" fill="#E0E0E2"/>
<path d="M0.769125 4.727C0.465875 3.1595 0.21 1.58288 0 0H29.3346C29.1245 1.583 28.8686 3.15963 28.5655 4.727H0.769125Z" transform="translate(3.12402 53.6205)" fill="#E0E0E2"/>
<path d="M17.8085 0H2.60612L0 2.60612V4.4045H20.4146V2.60612L17.8085 0Z" transform="translate(7.58374 18.2205)" fill="#FFDAAA"/>
<path d="M0 7.15987V12.7867L4.49613 17.283H9.8235C11.5794 15.5271 12.5639 14.5426 14.3196 12.7869V7.15987C14.3198 3.20562 11.1143 0 7.15988 0C3.20575 0 0 3.20562 0 7.15987Z" transform="translate(10.6311 0.9375)" fill="#FFDAAA"/>
<path d="M14.3196 6.79875C11.8269 6.79875 9.80612 4.778 9.80612 2.28525C9.80612 7.0395 5.952 10.8936 1.19775 10.8936H3.65542e-09V7.15987C-0.000124996 3.20562 3.20563 0 7.15975 0C10.9931 0 14.1229 3.0125 14.3106 6.79925L14.3196 6.79875Z" transform="translate(10.6313 0.9375)" fill="#787680"/>
<path d="M9.03488 0.248C8.43725 0.08625 7.80863 0 7.15988 0C3.20563 0 0 3.20562 0 7.15987V17.283H3.75V7.15987C3.75 3.85437 5.99013 1.072 9.03488 0.248Z" transform="translate(10.6311 0.9375)" fill="#57565C"/>
<path d="M0.769125 0C0.465875 1.5675 0.210125 3.14413 0 4.727H3.75C3.96012 3.144 4.216 1.56737 4.51912 0H0.769125Z" transform="translate(3.12402 27.34)" fill="#C6C5CA"/>
<path d="M0 0C0.210125 1.583 0.466 3.15963 0.769125 4.727H4.51912C4.21588 3.1595 3.96 1.58288 3.75 0H0Z" transform="translate(3.12402 53.6205)" fill="#C6C5CA"/>
<path d="M6.35612 0H2.60612L0 2.60612V4.4045H3.75V2.60612L6.35612 0Z" transform="translate(7.58374 18.2205)" fill="#FF9478"/>
<path d="M3.75 7.15987C3.75 3.85437 5.99 1.072 9.03488 0.248C8.43725 0.08625 7.80863 0 7.15988 0C3.20563 0 0 3.20562 0 7.15987V12.7869L4.49613 17.283H8.24613L3.75 12.7869V7.15987Z" transform="translate(10.6311 0.9375)" fill="#FF9478"/>
<path d="M3.75 7.15987C3.75 3.85437 5.99 1.07212 9.03475 0.248125C8.43725 0.08625 7.80863 0 7.15988 0C3.20563 0 0 3.20562 0 7.15987V10.8936H1.19775C2.08638 10.8936 2.9435 10.759 3.75 10.509V7.15987Z" transform="translate(10.6311 0.9375)" fill="#57565C"/>
<path d="M0 2.70262C0.55375 2.94662 1.16575 3.08262 1.8095 3.08387C1.75413 1.96987 1.44425 0.923 0.936626 0C0.775376 0.964625 0.45375 1.875 0 2.70262Z" transform="translate(23.1326 4.65234)" fill="#57565C"/>
<path d="M0.000125885 0.000500202L0.00899887 0C0.00599887 0 0.003 0 0 0C0.000125 0.000125 0.000125885 0.000375202 0.000125885 0.000500202Z" transform="translate(24.9419 7.73621)" fill="#57565C"/>
<path d="M1.875 0H0V1.875H1.875V0Z" transform="translate(11.5173 28.6887)" fill="black"/>
<path d="M1.70925 0H0V1.875H1.70925V0Z" transform="translate(5.43237 28.6887)" fill="black"/>
<path d="M1.875 0H0V1.875H1.875V0Z" transform="translate(8.39233 28.6887)" fill="black"/>
<path d="M25.3689 11.317H31.4753L31.3344 10.2561C31.1214 8.65075 30.8595 7.042 30.5563 5.47437L30.4094 4.71487H24.7409C24.6268 3.76475 24.5023 2.815 24.3685 1.87487H27.8468C27.9684 2.3675 28.0861 2.86462 28.1984 3.35962L30.027 2.94513C29.8571 2.19575 29.6749 1.44175 29.4855 0.70425L29.3046 0H2.17088L1.99 0.70425C1.79962 1.44588 1.61737 2.19987 1.4485 2.94525L3.27713 3.3595C3.38888 2.86638 3.50662 2.36937 3.62875 1.87487H7.1085C6.97475 2.815 6.85025 3.76475 6.73613 4.71487H1.06588L0.919001 5.47437C0.615751 7.042 0.353875 8.65075 0.140875 10.2561L0 11.317H6.10788C5.6465 17.8513 5.6465 24.4611 6.10788 30.9955H0.000125885L0.141001 32.0564C0.354001 33.6617 0.615875 35.2705 0.919125 36.8381L1.066 37.5976H6.736C6.85025 38.5481 6.97487 39.4979 7.1085 40.4376H3.62875C3.50675 39.9439 3.389 39.4469 3.27713 38.9529L1.4485 39.3674C1.61712 40.1109 1.79838 40.8614 1.9875 41.5979L2.15563 42.3125H28.5771L29.2409 42.3115L29.4616 41.686L29.4856 41.6073C29.6756 40.8676 29.8576 40.114 30.0269 39.3674L28.1982 38.9529C28.0863 39.4469 27.9685 39.9439 27.8466 40.4376H24.3684C24.502 39.4979 24.6266 38.5481 24.7409 37.5976H30.4094L30.5563 36.8381C30.8595 35.2705 31.1214 33.6617 31.3344 32.0564L31.4753 30.9955H25.3689C25.8301 24.4612 25.8301 17.8514 25.3689 11.317ZM23.4888 30.9955H21.789C21.89 28.5671 21.9541 26.1044 21.9799 23.6608L20.1049 23.6411C20.0791 26.0916 20.0145 28.5612 19.9124 30.9955H16.6756V11.317H19.9576C20.0298 13.0229 20.0838 14.7511 20.1181 16.4671L21.9926 16.4295C21.9586 14.7263 21.9054 13.0109 21.8343 11.317H23.4888C23.9565 17.8506 23.9565 24.4619 23.4888 30.9955ZM22.852 4.715H16.6756V1.875H22.474C22.6099 2.81413 22.7361 3.764 22.852 4.715ZM9.00237 1.875H14.8006V4.715H8.62438C8.7405 3.764 8.86687 2.81413 9.00237 1.875ZM2.61687 6.59H28.8584C29.0309 7.53163 29.1879 8.48562 29.3278 9.442H2.1475C2.28738 8.4855 2.44437 7.5315 2.61687 6.59ZM7.98787 11.317H14.8009V30.9955H7.98787C7.52025 24.4619 7.52025 17.8506 7.98787 11.317ZM8.62463 37.5975H14.8008V40.4375H9.0025C8.86688 39.4989 8.7405 38.549 8.62463 37.5975ZM22.4741 40.4375H16.6759V37.5975H22.8521C22.7361 38.549 22.6099 39.4989 22.4741 40.4375ZM28.8582 35.7225H2.61687C2.44437 34.7809 2.28738 33.8269 2.1475 32.8705H29.3275C29.1876 33.827 29.0308 34.781 28.8582 35.7225Z" transform="translate(2.05396 21.6875)" fill="black"/>
<path d="M2.01644 0.0653763L0.142692 0C0.0243174 3.39013 -0.0208075 6.83888 0.00881748 10.2508L1.88382 10.2345C1.85444 6.84975 1.89894 3.42838 2.01644 0.0653763Z" transform="translate(11.489 34.642)" fill="black"/>
<path d="M1.87437 4.46188C1.89462 3.62725 1.905 2.78062 1.905 1.9455C1.905 1.30212 1.89875 0.6475 1.88675 0L0.012001 0.0352478C0.024001 0.670998 0.0301247 1.31375 0.0301247 1.9455C0.0301247 2.7655 0.02 3.59662 0 4.41625L1.87437 4.46188Z" transform="translate(29.1826 39.9204)" fill="white"/>
<path d="M1.94875 1.89062C1.92937 1.26288 1.90375 0.626875 1.87275 0L0 0.0926247C0.0305 0.708 0.0556249 1.3325 0.0748749 1.94888L1.94875 1.89062Z" transform="translate(29.0889 36.7686)" fill="white"/>
<path d="M0 0.150249C0.049125 0.761999 0.0934991 1.38537 0.131874 2.00337L2.00325 1.88725C1.96425 1.258 1.919 0.623 1.869 0L0 0.150249Z" transform="translate(28.8882 33.6213)" fill="white"/>
<path d="M0.039496 0C-0.065754 3.78737 0.0396218 7.616 0.352372 11.3797L2.221 11.2245C1.91387 7.52937 1.8105 3.7705 1.91375 0.052124L0.039496 0Z" transform="translate(4.49561 39.98)" fill="black"/>
<path d="M0 0.189125C0.55075 5.61837 0.55075 11.1241 0 16.5534L1.8655 16.7426C2.429 11.1879 2.429 5.55475 1.8655 0L0 0.189125Z" transform="translate(31.821 34.4725)" fill="black"/>
<path d="M2.28803 0.189251L0.422531 0C-0.140844 5.55475 -0.140844 11.1879 0.422531 16.7426L2.28803 16.5534C1.73728 11.1243 1.73728 5.6185 2.28803 0.189251Z" transform="translate(1.47388 34.4724)" fill="black"/>
<path d="M1.875 0H0V1.875H1.875V0Z" transform="translate(24.0723 55.0463)" fill="black"/>
<path d="M1.875 0H0V1.875H1.875V0Z" transform="translate(27.1973 55.0463)" fill="black"/>
<path d="M1.66425 0H0V1.875H1.66425V0Z" transform="translate(18.0322 55.0463)" fill="black"/>
<path d="M1.875 0H0V1.875H1.875V0Z" transform="translate(20.9473 55.0463)" fill="black"/>
<path d="M1.875 0H0V1.875H1.875V0Z" transform="translate(24.8223 28.7662)" fill="white"/>
<path d="M5.16875 0H0V1.875H5.16875V0Z" transform="translate(18.4036 28.7662)" fill="white"/>
<path d="M1.875 0H0V1.875H1.875V0Z" transform="translate(27.9473 28.7662)" fill="white"/>
<path d="M0 20.1637L1.32588 21.4895L3.65738 19.158H18.0831L20.4146 21.4895L21.7405 20.1637L18.9674 17.3908V8.09737C18.9676 3.6325 15.3351 0 10.8703 0C6.40525 0 2.77287 3.6325 2.77287 8.09737V17.3909L0 20.1637ZM17.0926 17.283H15.7972L17.0926 15.9876V17.283ZM4.64787 8.09737C4.64787 4.66638 7.43938 1.875 10.8703 1.875C13.7928 1.875 16.2511 3.90025 16.9156 6.621C15.4878 6.1515 14.454 4.80562 14.454 3.22275H12.579C12.579 7.4525 9.138 10.8936 4.90825 10.8936H4.64787V8.09737ZM4.90837 12.7686C8.95725 12.7686 12.4254 10.2351 13.8105 6.66975C14.6228 7.66225 15.7778 8.364 17.0928 8.593V13.336L13.1459 17.283H8.59513L4.64813 13.336V12.7686H4.90837ZM5.94338 17.283H4.648V15.9876L5.94338 17.283Z" transform="translate(6.92065)" fill="black"/>
<path d="M4.02175 0.478625L2.209 0C1.899 1.17412 1.09375 2.15825 0 2.69987L0.832001 4.38013C2.41088 3.59813 3.57363 2.17613 4.02175 0.478625Z" transform="translate(13.6885 4.29614)" fill="white"/>
<path d="M1.87288 9.0415H3.74788C3.74788 7.57338 3.10912 6.8025 2.59587 6.183C2.16175 5.65913 1.875 5.313 1.875 4.52075C1.875 3.7285 2.16175 3.38238 2.59587 2.8585C3.109 2.239 3.74788 1.468 3.74788 0H1.87288C1.87288 0.79225 1.58613 1.13838 1.152 1.66225C0.638875 2.28175 0 3.05275 0 4.52087C0 5.989 0.63875 6.76 1.152 7.3795C1.58613 7.90313 1.87288 8.24925 1.87288 9.0415Z" transform="translate(4.2312 8.38562)" fill="black"/>
<path d="M2.59587 1.66225C2.16175 1.13837 1.875 0.79225 1.875 0H0C0 1.46812 0.638751 2.23912 1.15213 2.8585C1.58625 3.38237 1.873 3.7285 1.873 4.52075C1.873 5.313 1.58625 5.65912 1.15213 6.183C0.638876 6.8025 0 7.57337 0 9.0415H1.875C1.875 8.24925 2.16175 7.90312 2.59587 7.37925C3.10912 6.75975 3.748 5.98875 3.748 4.52063C3.748 3.0525 3.10937 2.28175 2.59587 1.66225Z" transform="translate(31.834 8.38538)" fill="black"/>
<path d="M0.385751 2.30263L2.26075 2.28838C2.25213 1.14838 1.83813 0.436375 1.52763 0L0 1.08725C0.228375 1.40825 0.381501 1.73775 0.385751 2.30263Z" transform="translate(1.48755 6.06006)" fill="black"/>
<path d="M3.74787 8.2175C3.74787 6.74938 3.10912 5.97838 2.59575 5.359C2.16162 4.83512 1.87488 4.489 1.87488 3.69675C1.87488 2.9045 2.16162 2.55838 2.59575 2.03438C2.8875 1.68225 3.21812 1.28325 3.45212 0.728624L1.72462 0C1.59812 0.299875 1.39137 0.549375 1.15212 0.838125C0.638874 1.45763 0 2.22862 0 3.69675C0 5.16487 0.638749 5.93587 1.15212 6.55538C1.58625 7.07925 1.873 7.42537 1.873 8.21762H3.74787V8.2175Z" transform="translate(0.000244141 9.20959)" fill="black"/>
<path d="M2.24725 1.219C2.02387 0.90025 1.875 0.570875 1.875 0H0C0 1.147 0.40625 1.85925 0.71175 2.29525L2.24725 1.219Z" transform="translate(0 3.86462)" fill="black"/>
<path d="M0 13.5626H1.875C1.875 12.7704 2.16175 12.4243 2.59587 11.9004C3.10912 11.2809 3.748 10.5099 3.748 9.04175C3.748 7.57363 3.10925 6.80262 2.59587 6.18312C2.16175 5.65925 1.875 5.31313 1.875 4.52087C1.875 3.72863 2.16175 3.3825 2.59587 2.85862C3.10912 2.23913 3.748 1.46812 3.748 0H1.873C1.873 0.79225 1.58625 1.13838 1.15213 1.66225C0.638876 2.28175 0 3.05275 0 4.52087C0 5.989 0.638751 6.76 1.15213 7.37937C1.58625 7.90325 1.873 8.24938 1.873 9.04163C1.873 9.83387 1.58625 10.18 1.15213 10.7039C0.639001 11.3235 0 12.0944 0 13.5626Z" transform="translate(27.6165 3.8645)" fill="black"/>
</svg>
