<svg width="39" height="64" viewBox="0 0 39 64" fill="none" xmlns="http://www.w3.org/2000/svg">
<path d="M4.18188 17.0932L5.27739 15.9975C9.3924 11.8825 9.3924 5.21064 5.27739 1.0955L4.18188 0L3.08626 1.0955C-1.02875 5.21051 -1.02875 11.8824 3.08626 15.9975L4.18188 17.0932Z" transform="translate(14.8674 28.0938)" fill="#C2FB3B"/>
<path d="M4.31006 16.6147L5.40569 15.5192L6.50119 16.6147C7.21732 17.3308 7.80569 18.1254 8.27257 18.9694C12.0856 13.6477 11.6024 6.19726 6.82144 1.41613L5.40531 0L3.98918 1.41613C-0.792077 6.19739 -1.27508 13.6482 2.53855 18.9699C3.00518 18.1258 3.5938 17.3308 4.31006 16.6147Z" transform="translate(13.6436 12.5747)" fill="#C2FB3B"/>
<path d="M10.755 0C7.61852 0 4.73026 1.06075 2.42775 2.842C2.85376 6.17951 2.044 9.64402 0 12.4972C0.522751 13.4422 0.890377 14.4494 1.10075 15.4832C7.69276 14.5307 12.758 8.85877 12.758 2.00288V0.000123978L10.755 0Z" transform="translate(21.9158 19.0466)" fill="#C2FB3B"/>
<path d="M12.7575 12.4978C10.7131 9.64439 9.90315 6.17951 10.3294 2.8415C8.02689 1.0605 5.13889 0 2.00275 0H0V2.00275C0 8.85864 5.06513 14.5305 11.6573 15.483C11.8674 14.4497 12.2349 13.4424 12.7575 12.4978Z" transform="translate(3.4248 19.0466)" fill="#C2FB3B"/>
<path d="M7.99252 2.19975C6.21114 0.821126 3.97613 0 1.54925 0H0V1.54925C0 7.36877 4.71776 12.0865 10.5373 12.0865H12.0865L10.9909 10.9909C8.59177 8.59189 7.59414 5.32388 7.99252 2.19975Z" transform="translate(6.9624 33.1002)" fill="#C2FB3B"/>
<path d="M10.5374 0C8.11039 0 5.87551 0.821001 4.09413 2.19975C4.49263 5.32388 3.49488 8.59189 1.09563 10.9911L0 12.0868H1.54925C7.36877 12.0868 12.0865 7.36901 12.0865 1.5495V0.000247956H10.5373V0H10.5374Z" transform="translate(19.0493 33.1002)" fill="#C2FB3B"/>
<path d="M4.49122 12.6653L5.90734 11.2491L7.32347 12.6653C8.86497 14.2068 9.95698 16.0265 10.6051 17.9623C12.9422 12.5279 11.8932 5.98589 7.45522 1.54788L5.90734 0L4.35959 1.54788C-0.0784189 5.98589 -1.12742 12.5279 1.20971 17.9623C1.85771 16.0264 2.94971 14.2068 4.49122 12.6653Z" transform="translate(13.1414 1.32581)" fill="#C2FB3B"/>
<path d="M10.8236 0C6.61327 0 2.79538 1.6775 0 4.40001C1.616 8.15089 1.61688 12.4307 0.0035019 16.1828C0.192502 16.747 0.345501 17.3205 0.458627 17.9007C7.81114 16.6805 13.4177 10.2924 13.4177 2.59401V0H10.8236Z" transform="translate(23.7434 3.10437)" fill="#C2FB3B"/>
<path d="M13.417 4.39951C10.6216 1.67738 6.80401 0 2.59388 0H0V2.59388C0 10.2923 5.60601 16.68 12.9583 17.9004C13.0713 17.3203 13.2244 16.7469 13.4134 16.1827C11.7996 12.4305 11.8006 8.15064 13.417 4.39951Z" transform="translate(0.9375 3.10425)" fill="#C2FB3B"/>
<path d="M5.73338 0H0V17.8753H5.73338V0Z" transform="translate(16.1826 45.1863)" fill="#91DC5A"/>
<path d="M3.74976 0H0V17.8753H3.74976V0Z" transform="translate(16.1826 45.1863)" fill="#64C37D"/>
<path d="M5.73338 0H0V3.25988H5.73338V0Z" transform="translate(16.1826 52.0846)" fill="#FFB655"/>
<path d="M6.05676 1.96525C5.81576 1.66463 5.55601 1.37425 5.27739 1.0955L4.18188 0L3.08626 1.0955C-1.02875 5.21051 -1.02875 11.8824 3.08626 15.9975L4.18188 17.0932L5.27739 15.9975C5.55614 15.7189 5.81589 15.4284 6.05676 15.1278C2.98076 11.2911 2.98076 5.80214 6.05676 1.96525Z" transform="translate(14.8674 28.0938)" fill="#91DC5A"/>
<path d="M7.28019 1.8975C7.13194 1.73425 6.97906 1.57375 6.82144 1.41613L5.40531 0L3.98918 1.41613C-0.792077 6.19739 -1.27508 13.6482 2.53855 18.9699C3.00543 18.1257 3.59418 17.3308 4.31031 16.6145L4.74868 16.1762C2.83093 11.4509 3.67431 5.86739 7.28019 1.8975Z" transform="translate(13.6438 12.5746)" fill="#91DC5A"/>
<path d="M1.875 0L0.779379 1.0955C0.500253 1.37463 0.240625 1.66575 0 1.967C0.376876 2.43863 0.707253 2.93538 0.992128 3.45026C1.62288 2.57 2.13588 1.63163 2.53151 0.656501L1.875 0Z" transform="translate(20.9243 28.0939)" fill="#91DC5A"/>
<path d="M3.74963 12.4973C5.79364 9.64415 6.60351 6.17976 6.17739 2.84213C8.04539 1.397 10.2989 0.426127 12.7578 0.111126V0H10.755C7.61852 0 4.73026 1.06075 2.42775 2.84201C2.85376 6.17951 2.044 9.64402 0 12.4972C0.522751 13.4422 0.890377 14.4494 1.10075 15.4832C2.326 15.3062 3.49863 14.9659 4.59576 14.4854C4.38463 13.8018 4.10251 13.1352 3.74963 12.4973Z" transform="translate(21.9165 19.0465)" fill="#91DC5A"/>
<path d="M3.74976 2.00288V0.111126C3.17776 0.037876 2.59476 0 2.00275 0H0V2.00275C0 8.85864 5.06513 14.5305 11.6573 15.483C11.7256 15.1473 11.8106 14.8143 11.912 14.4853C7.10676 12.3813 3.74976 7.58452 3.74976 2.00288Z" transform="translate(3.4248 19.0465)" fill="#91DC5A"/>
<path d="M3.74976 1.54913V0.230248C3.04 0.0793727 2.304 0 1.54925 0H0V1.54925C0 7.36876 4.71776 12.0865 10.5373 12.0865H12.0865L11.7885 11.7885C7.17514 10.6666 3.74976 6.50801 3.74976 1.54913Z" transform="translate(6.96265 33.1003)" fill="#91DC5A"/>
<path d="M4.84526 10.9911C7.24451 8.59189 8.24214 5.32388 7.84377 2.19975C9.07114 1.24975 10.514 0.564627 12.0866 0.230252V0H10.5374C8.11039 0 5.87551 0.821001 4.09413 2.19975C4.49263 5.32388 3.49488 8.59189 1.09563 10.9911L0 12.0868H1.54925C2.41013 12.0868 3.24675 11.9835 4.04776 11.7888L4.84526 10.9911Z" transform="translate(19.0493 33.1002)" fill="#91DC5A"/>
<path d="M3.29101 1.41613L1.87488 0L0.458749 1.41613C0.301123 1.57375 0.14825 1.73438 0 1.89763C1.30138 3.33101 2.24113 4.97538 2.82288 6.71314C3.4515 5.25151 3.83513 3.70963 3.97376 2.15025C3.75675 1.89925 3.52926 1.65438 3.29101 1.41613Z" transform="translate(20.9241 12.5748)" fill="#91DC5A"/>
<path d="M7.78235 1.88525C7.67547 1.7715 7.56647 1.659 7.45535 1.54788L5.90747 0L4.35959 1.54788C-0.0784189 5.98589 -1.12742 12.5279 1.20971 17.9623C1.75758 16.3258 2.62271 14.7722 3.80871 13.3995C3.44471 9.30614 4.76884 5.09138 7.78235 1.88525Z" transform="translate(13.1416 1.32581)" fill="#91DC5A"/>
<path d="M3.75313 16.1828C5.36638 12.4308 5.36564 8.15114 3.74963 4.40001C6.28689 1.929 9.66652 0.318876 13.4175 0.0425001V0H10.8236C6.61326 0 2.79538 1.6775 0 4.40001C1.616 8.15089 1.61688 12.4307 0.0035019 16.1828C0.192502 16.747 0.345501 17.3205 0.458627 17.9007C1.68225 17.6975 2.85763 17.3513 3.96676 16.8797C3.90163 16.646 3.83038 16.4137 3.75313 16.1828Z" transform="translate(23.7437 3.10413)" fill="#91DC5A"/>
<path d="M3.74976 2.59376V0.0425001C3.36813 0.014375 2.98263 0 2.59388 0H0V2.59388C0 10.2923 5.60601 16.68 12.9583 17.9004C13.0252 17.5575 13.106 17.217 13.1999 16.8793C7.64502 14.5172 3.74976 9.01089 3.74976 2.59376Z" transform="translate(0.9375 3.10437)" fill="#91DC5A"/>
<path d="M3.74976 0H0V3.25988H3.74976V0Z" transform="translate(16.1826 52.0846)" fill="#FF7956"/>
<path d="M4.46288 1.86338L4.25501 0C2.74963 0.168 1.31788 0.625874 0 1.361L0.913378 2.99838C2.01225 2.38525 3.20651 2.00338 4.46288 1.86338Z" transform="translate(27.1228 21.3058)" fill="white"/>
<path d="M34.1509 16.3905C36.6966 13.4158 38.0985 9.61852 38.0985 5.69826V2.167H34.5672C30.6872 2.167 26.9979 3.50863 24.0469 5.96964C23.3165 4.59738 22.3812 3.33213 21.2597 2.21088L19.0488 0L16.838 2.21075C15.7169 3.33188 14.7814 4.59713 14.051 5.96914C11.1 3.50838 7.41114 2.167 3.53126 2.167H0V5.69826C0 9.61839 1.40175 13.4157 3.94726 16.3903C4.47588 17.008 5.04676 17.5827 5.65426 18.111C5.57876 18.1099 2.48713 18.1093 2.48713 18.1093V21.0495C2.48713 24.5713 3.76126 27.9702 6.07489 30.6201C6.56039 31.1761 7.08451 31.6914 7.64151 32.1629H6.02501V34.6497C6.02501 40.977 11.1726 46.1246 17.4998 46.1246H18.1117V49.5844H19.9867V46.1246H20.5985C26.9258 46.1246 32.0733 40.977 32.0733 34.6497V32.1629H30.4567C31.0139 31.6913 31.5381 31.1759 32.0233 30.6201C34.3369 27.9702 35.6111 24.5713 35.6111 21.0495V18.1093C35.6111 18.1093 32.5194 18.1099 32.4439 18.111C33.0516 17.5827 33.6224 17.008 34.1509 16.3905ZM34.5671 4.04176H36.2234V5.69814C36.2234 12.5655 31.5167 18.4085 24.911 19.9107C24.8595 19.7155 24.8042 19.5217 24.7447 19.3292C25.1944 18.2157 25.5136 17.0633 25.7001 15.891L30.7869 10.8041L29.4613 9.47827L25.8918 13.0478C25.8726 12.2112 25.7871 11.3725 25.6346 10.5384C25.4591 9.57914 25.1978 8.64627 24.8554 7.74814C27.5314 5.35351 30.9559 4.04176 34.5671 4.04176ZM18.2954 14.6538L19.0488 13.9004L19.8022 14.6538C23.874 18.7257 24.6707 24.8987 21.9135 29.8053C21.5794 29.3566 21.2103 28.9291 20.8077 28.5264L19.9863 27.7051V19.6899H18.1114V27.7058L17.2908 28.5264C16.8878 28.9294 16.5185 29.3572 16.1843 29.8059C13.4268 24.8993 14.2234 18.726 18.2954 14.6538ZM18.1118 37.5641V42.884C16.619 41.1458 15.8048 38.9557 15.8048 36.6404C15.8048 34.0761 16.8034 31.6654 18.6165 29.8523L19.0492 29.4196L19.4818 29.8523C21.2949 31.6654 22.2935 34.0761 22.2935 36.6404C22.2935 38.9557 21.4793 41.1458 19.9865 42.884V37.5641H18.1118ZM18.1638 3.53651L19.0489 2.65138L19.934 3.53651C23.4345 7.03689 24.7794 12.0021 23.6333 16.686C22.9692 15.4609 22.1279 14.3279 21.1279 13.328L19.9864 12.1865V7.12826H18.1115V12.1863L16.9699 13.3278C15.9699 14.3278 15.1287 15.4607 14.4647 16.6858C13.3184 12.0021 14.6632 7.03701 18.1638 3.53651ZM1.87475 5.69814V4.04176H3.53113C7.14201 4.04176 10.5664 5.35326 13.2424 7.74777C12.8999 8.64602 12.6385 9.57914 12.463 10.5385C12.3104 11.3726 12.225 12.2113 12.2058 13.0479L8.63627 9.47827L7.31064 10.804L12.3975 15.8909C12.584 17.0632 12.9031 18.2158 13.3529 19.3292C13.2935 19.5215 13.238 19.7154 13.1867 19.9104C6.58126 18.4083 1.87475 12.5652 1.87475 5.69814ZM4.36201 21.0494V19.984H5.42739C8.08827 19.984 10.6136 20.7902 12.764 22.3205C12.7589 22.3779 12.7542 22.4353 12.7497 22.4928C12.6174 24.2034 12.7889 25.9118 13.2424 27.5393L8.93202 23.2289L7.60639 24.5547L14.9494 31.8977C14.721 32.4004 14.5298 32.9194 14.3768 33.4511C8.61102 32.2124 4.36201 27.0252 4.36201 21.0494ZM7.90002 34.6496V34.0377H8.51189C10.4849 34.0377 12.3593 34.6233 13.9649 35.7361C13.9418 36.0353 13.93 36.3369 13.93 36.6403C13.93 37.4353 14.0104 38.2178 14.1672 38.9788L13.1472 37.9588L11.8215 39.2846L13.1472 40.6102L14.2812 39.4761C14.3965 39.9318 14.5397 40.379 14.7099 40.8151L14.0309 41.4941L15.3565 42.8197L15.5872 42.5891C15.9369 43.1638 16.3394 43.7105 16.7919 44.2232C11.8279 43.8601 7.90002 39.705 7.90002 34.6496ZM30.1983 34.6496C30.1983 39.6932 26.2887 43.841 21.3408 44.2211L27.7463 37.8157L26.4207 36.4899L23.9314 38.9792C24.0882 38.2182 24.1685 37.4357 24.1685 36.6407C24.1685 36.3373 24.1568 36.0357 24.1337 35.7364C25.7392 34.6236 27.6136 34.0381 29.5867 34.0381H30.1986V34.6497H30.1983V34.6496ZM33.7364 19.9842V21.0495C33.7364 27.0252 29.4874 32.2126 23.7219 33.4513C23.5689 32.9193 23.3774 32.4002 23.149 31.8973L28.4056 26.6408L27.0799 25.3151L24.8554 27.5394C25.3089 25.9119 25.4806 24.2033 25.3482 22.4925C25.3438 22.4353 25.3389 22.3782 25.3338 22.321C27.4843 20.7904 30.0099 19.984 32.6711 19.984L33.7364 19.9842Z" fill="black"/>
<path d="M2.42188 0.546625L0.628377 0C0.460502 0.550876 0.249 1.09375 0 1.61325L1.69063 2.42375C1.98063 1.81913 2.2265 1.1875 2.42188 0.546625Z" transform="translate(31.9722 9.03918)" fill="white"/>
<path d="M2.07938 0.0822503L0.206376 0C0.181125 0.575501 0.111625 1.15375 0 1.71938L1.83938 2.08263C1.96925 1.42488 2.05013 0.751752 2.07938 0.0822503Z" transform="translate(32.8813 6.19971)" fill="white"/>
<path d="M0 3.96213L0.936003 5.58676C2.25788 4.82501 3.43138 3.85101 4.42363 2.69151C4.88201 2.156 5.30089 1.57925 5.66839 0.976752L4.06801 0C3.75226 0.517251 3.39263 1.01275 2.99913 1.47225C2.14588 2.46963 1.13675 3.30726 0 3.96213Z" transform="translate(27.353 11.6674)" fill="white"/>
<path d="M5.39314 6.63701L6.32914 5.01263C5.19251 4.35763 4.18363 3.52026 3.33051 2.52325C2.67663 1.75913 2.12601 0.910252 1.69338 0L0 0.804751C0.503376 1.86438 1.14463 2.85263 1.906 3.74226C2.89801 4.90151 4.07113 5.87551 5.39314 6.63701Z" transform="translate(4.41528 10.6163)" fill="white"/>
<path d="M8.61927 0H6.74439V3.45976H2.88588V0H1.011V3.45976H0V5.33464H1.011V6.72001H0V8.59489H1.011V16.3132H8.61939V8.59489H9.76064V6.72001H8.61939V5.33464H9.76064V3.45976H8.61939V0H8.61927ZM6.74439 5.33464V6.72001H2.88588V5.33464H6.74439ZM5.75251 14.4384V9.75114H3.87763V14.4384H2.88576V8.59502H6.74426V14.4384H5.75251Z" transform="translate(14.2341 47.6869)" fill="black"/>
<path d="M1.87488 0H0V1.87488H1.87488V0Z" transform="translate(12.2627 37.0767) rotate(135)" fill="black"/>
<path d="M1.87488 0H0V3.18738H1.87488V0Z" transform="translate(18.1111 32.4395)" fill="black"/>
</svg>
