<svg xmlns="http://www.w3.org/2000/svg" viewBox="0 0 108.31 39.39"><defs><style>.cls-1{fill:#c5ac84;}</style></defs><title>Ресурс 1</title><g id="Слой_2" data-name="Слой 2"><g id="Isolation_Mode" data-name="Isolation Mode"><path class="cls-1" d="M75.27,39.39a46.7,46.7,0,0,0,5.88-.34c2-.21,4-.42,6-.67s4-.5,6-.67a56.94,56.94,0,0,1,6-.17,35.19,35.19,0,0,1,4.92.29,20.13,20.13,0,0,1,4.28,1,4.13,4.13,0,0,0-1.51-3.73,9.47,9.47,0,0,0-4.24-2c.8-1.47,1-2.52.46-3.15a2.59,2.59,0,0,0-2.6-.75,5.18,5.18,0,0,0-2.06.58c-.59.34-1.22.68-1.93,1a5.34,5.34,0,0,1,.84-2.1,1.6,1.6,0,0,0,.42-1.47,1.28,1.28,0,0,0-1.22-1A4.63,4.63,0,0,0,94,27a9.79,9.79,0,0,0-2.52,1.43c-.84.71-1.63,1.42-2.43,2.18s-1.43,1.51-2.1,2.27-1.18,1.34-1.6,1.8a8,8,0,0,1-3.11,1.94,9.72,9.72,0,0,1-3.19.75c-.29-.08-.46-.38-.54-1s.08-.93.42-1.1a7.63,7.63,0,0,0,4-5.08c.12-.63.25-1.43.33-2.31s.13-1.8.26-2.68a9.1,9.1,0,0,1,.5-2.19c.21-.63.55-.92,1-.92a.44.44,0,0,1,.46.25,2.35,2.35,0,0,0,.3.59,1.74,1.74,0,0,0,.63.54,1.82,1.82,0,0,0,1.13.13,2.06,2.06,0,0,0,1-.76A1.72,1.72,0,0,0,89,21.21a3.45,3.45,0,0,0-1.35-2.31,3,3,0,0,0-2.56-.72A5,5,0,0,0,81.91,20a10.07,10.07,0,0,0-1.51,3c-.3,1.1-.55,2.1-.72,3.07A3.1,3.1,0,0,1,79.05,28a2.07,2.07,0,0,1-1.47.25c-.67-.08-1.38-.12-2.14-.17a5.47,5.47,0,0,0-2.18.3,2.47,2.47,0,0,0-1.35,1.93A2.15,2.15,0,0,0,72.12,32a6.81,6.81,0,0,0,1.14,1.3,8.83,8.83,0,0,0,1.51,1,5.64,5.64,0,0,1,1.34,1,2.5,2.5,0,0,1,.63,1.26c.09.55-.12.8-.63.8a20.1,20.1,0,0,1-7.18-.8,18.71,18.71,0,0,1-6-3,16,16,0,0,1-4.25-5,17.94,17.94,0,0,1-1.93-6.72h1.31a3.55,3.55,0,0,0,1.47,2.18,4.21,4.21,0,0,0,2.43.76,4,4,0,0,0,2.73-1.09,3.36,3.36,0,0,0,1.18-2.81,4.37,4.37,0,0,0-1.26-2.94A4.27,4.27,0,0,0,62,16.67a4.19,4.19,0,0,0-2.56.8,3,3,0,0,0-1.34,2H56.63a16.2,16.2,0,0,1,1.3-6.13A14.53,14.53,0,0,1,61,8.86a12.43,12.43,0,0,1,4.07-2.77,11.12,11.12,0,0,1,4.58-.8,7.84,7.84,0,0,1,4.2,1.47,4.08,4.08,0,0,1,1.84,3.82,4.18,4.18,0,0,1-.63,2.23,2.17,2.17,0,0,1-2,1,1,1,0,0,1-.92-.76,5.45,5.45,0,0,0-.38-1.22,1.52,1.52,0,0,0-.8-.8,1.4,1.4,0,0,0-1.13,0,1.45,1.45,0,0,0-1,.68,3.75,3.75,0,0,0-.46,1.38,4.5,4.5,0,0,0,.92,3,3.57,3.57,0,0,0,2.85,1.63,6.87,6.87,0,0,0,6.6-7.6A9.92,9.92,0,0,0,77,5.25a10.16,10.16,0,0,0-3.45-3A11.59,11.59,0,0,0,69.06,1a16.69,16.69,0,0,0-4.62.2,3.21,3.21,0,0,0-.8-.84A2.9,2.9,0,0,0,62,0a2,2,0,0,0-1.64.75,14.51,14.51,0,0,0-1.17,1.6A26,26,0,0,0,56,11.13,49.41,49.41,0,0,0,55.24,21a19.16,19.16,0,0,0,1.64,7.51,16.77,16.77,0,0,0,4.2,5.84,18.08,18.08,0,0,0,6.34,3.74,22.69,22.69,0,0,0,7.85,1.3ZM33,39.39a22.69,22.69,0,0,0,7.85-1.3,18,18,0,0,0,6.34-3.74,16.87,16.87,0,0,0,4.24-5.84A19,19,0,0,0,53.06,21a49.41,49.41,0,0,0-.76-9.87,26.57,26.57,0,0,0-3-8.78A9.6,9.6,0,0,0,48,.75,2.18,2.18,0,0,0,46.34,0a2.59,2.59,0,0,0-2.48,1.17A17.2,17.2,0,0,0,39.2,1a11.22,11.22,0,0,0-4.41,1.3,10.52,10.52,0,0,0-3.53,3,8.86,8.86,0,0,0-1.68,4.91,6.52,6.52,0,0,0,2,5.55,6.79,6.79,0,0,0,4.58,2.05A3.44,3.44,0,0,0,39,16.13a5.4,5.4,0,0,0,1-3,3.9,3.9,0,0,0-.42-1.38,1.25,1.25,0,0,0-1-.68,1.6,1.6,0,0,0-2,.84,4.32,4.32,0,0,0-.47,1.26c-.12.46-.37.72-.79.72a2.13,2.13,0,0,1-2-1,5.19,5.19,0,0,1-.75-2.23A4.4,4.4,0,0,1,34.5,6.76a7.55,7.55,0,0,1,4.15-1.47,10.9,10.9,0,0,1,4.58.8,13.17,13.17,0,0,1,4.12,2.77,15.32,15.32,0,0,1,3,4.49,16.2,16.2,0,0,1,1.3,6.13H50.24a3,3,0,0,0-1.34-2,4,4,0,0,0-2.43-.8,4.4,4.4,0,0,0-2.78,1.18,3.9,3.9,0,0,0-1.13,2.94,3.47,3.47,0,0,0,1.13,2.81,4.24,4.24,0,0,0,2.78,1.09,4.42,4.42,0,0,0,2.39-.76,3.45,3.45,0,0,0,1.51-2.18h1.3a17.11,17.11,0,0,1-2,6.72,14.92,14.92,0,0,1-4.24,5,19.94,19.94,0,0,1-6.13,3,20.71,20.71,0,0,1-7.27.8c-.42,0-.59-.25-.46-.8a2.19,2.19,0,0,1,.59-1.26,5.7,5.7,0,0,1,1.34-1A14.84,14.84,0,0,0,35,33.22,4.71,4.71,0,0,0,36.18,32a2.15,2.15,0,0,0,.21-1.68,2.41,2.41,0,0,0-1.31-1.93,5.06,5.06,0,0,0-2.14-.3c-.8.05-1.55.09-2.22.17A2.12,2.12,0,0,1,29.25,28a3.1,3.1,0,0,1-.63-1.89,24.39,24.39,0,0,0-.72-3.07,9.32,9.32,0,0,0-1.55-3,5.31,5.31,0,0,0-3.15-1.85,3,3,0,0,0-2.56.72,3.45,3.45,0,0,0-1.35,2.31,1.83,1.83,0,0,0,.34,1.63,2,2,0,0,0,1.09.76,2,2,0,0,0,1.18-.13,1.25,1.25,0,0,0,.59-.54c.12-.21.21-.42.29-.59s.21-.25.42-.25a1.21,1.21,0,0,1,1.13.92,9,9,0,0,1,.55,2.19c.08.88.17,1.76.25,2.68s.21,1.68.34,2.31a6.59,6.59,0,0,0,1.38,2.94,10.63,10.63,0,0,0,2.61,2.14c.29.17.42.51.33,1.1s-.25.88-.54,1a9.72,9.72,0,0,1-3.19-.75A7.55,7.55,0,0,1,23,34.64c-.46-.5-1-1.13-1.64-1.84s-1.34-1.47-2.1-2.23-1.59-1.47-2.43-2.18A9.79,9.79,0,0,0,14.3,27a4.63,4.63,0,0,0-2.44-.67,1.28,1.28,0,0,0-1.22,1,1.91,1.91,0,0,0,.55,1.47,4.8,4.8,0,0,1,.76,2.1c-.72-.33-1.39-.67-2-1a5,5,0,0,0-2.06-.58,2.59,2.59,0,0,0-2.6.75c-.5.63-.34,1.68.46,3.15a9.47,9.47,0,0,0-4.24,2A4.23,4.23,0,0,0,0,38.84a22.5,22.5,0,0,1,4.41-1,35,35,0,0,1,4.91-.29,57.13,57.13,0,0,1,6,.17c2,.17,3.94.42,6,.67s4,.46,5.88.67a46.18,46.18,0,0,0,5.84.34ZM78,31.83c-.42,0-.63-.21-.63-.55s.21-.67.63-.67a.58.58,0,0,1,.67.67c0,.34-.21.55-.67.55Z"/></g></g></svg>