<svg width="15" height="16" viewBox="0 0 15 16" fill="none" xmlns="http://www.w3.org/2000/svg">
<path d="M10.9386 0C10.7912 0 10.6718 0.119433 10.6718 0.266786V6.40311C10.6718 6.55047 10.5523 6.6699 10.405 6.6699H7.73704V2.66795C7.73704 2.22593 7.37868 1.86756 6.93665 1.86756H4.2687C3.82667 1.86756 3.46831 2.22589 3.46831 2.66795V6.6699H0.800358C0.653005 6.6699 0.533572 6.55047 0.533572 6.40311V0.266786C0.533572 0.119433 0.414139 0 0.266786 0C0.119433 0 0 0.119433 0 0.266786V6.40311C0 6.84514 0.35833 7.2035 0.800389 7.2035H10.4051C10.8471 7.2035 11.2054 6.84517 11.2054 6.40311V0.266786C11.2054 0.119433 11.0859 0 10.9386 0ZM7.20344 6.6699H4.00188V2.66795C4.00188 2.5206 4.12132 2.40117 4.26867 2.40117H6.93662C7.08398 2.40117 7.20341 2.5206 7.20341 2.66795V6.6699H7.20344Z" transform="translate(1.64661 8.79639)" fill="#607D8B"/>
<path d="M14.2668 6.87262L7.81783 0.233926C7.50296 -0.0779754 6.99562 -0.0779754 6.68075 0.233926L0.23255 6.87262C0.00134402 7.11096 -0.0641878 7.46479 0.0663444 7.77012C0.187497 8.06889 0.47817 8.26399 0.800576 8.26289H0.891808C1.08262 8.26105 1.26637 8.19048 1.4094 8.06414C1.42844 8.05173 1.4463 8.03763 1.46277 8.022L7.24931 2.06122L13.0401 8.02518C13.0556 8.03985 13.0723 8.05313 13.09 8.06492C13.233 8.19076 13.4164 8.26102 13.6068 8.26289H13.698C14.0207 8.2643 14.3118 8.06917 14.4331 7.77012C14.5636 7.46479 14.4981 7.11096 14.2668 6.87262ZM13.9416 7.56255C13.902 7.66254 13.8056 7.72851 13.698 7.72929H13.6068C13.5362 7.72932 13.4687 7.70037 13.4201 7.64925C13.4182 7.64713 13.4152 7.64659 13.4134 7.64472C13.4115 7.64284 13.4097 7.6399 13.4073 7.63806L7.44059 1.49241L7.4374 1.49029L7.43605 1.48629C7.4232 1.47603 7.40935 1.46709 7.39469 1.45962C7.38087 1.44858 7.36593 1.43901 7.35014 1.43107C7.33375 1.42579 7.31684 1.42219 7.29971 1.42041C7.26766 1.40869 7.23249 1.40869 7.20047 1.42041C7.18334 1.42222 7.16645 1.42579 7.15004 1.43107C7.13425 1.43904 7.11931 1.44861 7.10549 1.45962C7.09082 1.46709 7.07697 1.47603 7.06412 1.48629L7.062 1.48947L7.05881 1.4916L1.09084 7.63806C1.08844 7.63993 1.08737 7.64259 1.08496 7.64447C1.08256 7.64634 1.0799 7.64713 1.07802 7.64928C1.02934 7.7004 0.961842 7.72935 0.891277 7.72932H0.800576C0.692993 7.72854 0.596665 7.66257 0.556989 7.56258C0.509622 7.45469 0.53229 7.32885 0.614361 7.2443H0.613798L7.06253 0.605857C7.11171 0.556302 7.17865 0.528413 7.24849 0.528413C7.31831 0.528413 7.38525 0.556302 7.43446 0.605857L13.8843 7.24427C13.9663 7.32885 13.989 7.45466 13.9416 7.56255Z" fill="#607D8B"/>
<path d="M2.93477 3.46834C3.3768 3.46834 3.73516 3.10998 3.73516 2.66795V0.800389C3.73516 0.358331 3.3768 0 2.93477 0H0.800389C0.358362 0 0 0.358331 0 0.800389V2.66795C0 3.10998 0.358331 3.46834 0.800389 3.46834H2.93477ZM0.533603 2.66795V0.800389C0.533603 0.653037 0.653037 0.533603 0.800389 0.533603H2.93477C3.08212 0.533603 3.20156 0.653068 3.20156 0.800389V2.66795C3.20156 2.81531 3.08209 2.93474 2.93477 2.93474H0.800389C0.653037 2.93474 0.533603 2.81528 0.533603 2.66795Z" transform="translate(5.38171 5.86182)" fill="#607D8B"/>
<path d="M0.533572 0H0.266786C0.119433 0 0 0.119433 0 0.266786C0 0.414139 0.119433 0.533572 0.266786 0.533572H0.533572C0.680925 0.533572 0.800358 0.414139 0.800358 0.266786C0.800358 0.119433 0.680893 0 0.533572 0Z" transform="translate(5.91541 13.0654)" fill="#607D8B"/>
</svg>
