<svg width="16" height="12" viewBox="0 0 16 12" fill="none" xmlns="http://www.w3.org/2000/svg">
<path d="M3.22636 3.30123C3.1629 3.30123 3.09944 3.27801 3.04991 3.23106L0.0812572 0.446074C-0.0224446 0.34908 -0.0276045 0.18553 0.0699061 0.0818286C0.167417 -0.022905 0.329935 -0.0275485 0.434669 0.070478L3.40333 2.85546C3.50703 2.95246 3.51219 3.11601 3.41468 3.21971C3.3636 3.27388 3.2955 3.30123 3.22636 3.30123Z" transform="translate(9.72815 5.48389)" fill="#607D8B"/>
<path d="M0.258221 3.30064C0.189602 3.30064 0.120983 3.2733 0.0699064 3.21912C-0.0276042 3.11542 -0.022445 2.95187 0.0812568 2.85488L3.05095 0.069891C3.15516 -0.0271037 3.31871 -0.0229761 3.41571 0.0812416C3.51322 0.184943 3.50806 0.348493 3.40436 0.445487L0.434668 3.23047C0.385139 3.27742 0.32168 3.30064 0.258221 3.30064Z" transform="translate(2.78674 5.48486)" fill="#607D8B"/>
<path d="M14.7102 11.3747H1.28982C0.578873 11.3747 0 10.7963 0 10.0849V1.28982C0 0.578357 0.578873 0 1.28982 0H14.7102C15.4211 0 16 0.578357 16 1.28982V10.0849C16 10.7963 15.4211 11.3747 14.7102 11.3747ZM1.28982 0.515929C0.86315 0.515929 0.515929 0.86315 0.515929 1.28982V10.0849C0.515929 10.5115 0.86315 10.8588 1.28982 10.8588H14.7102C15.1369 10.8588 15.4841 10.5115 15.4841 10.0849V1.28982C15.4841 0.86315 15.1369 0.515929 14.7102 0.515929H1.28982Z" fill="#607D8B"/>
<path d="M7.66031 6.57253C7.31721 6.57253 6.97412 6.45851 6.71306 6.23099L0.0885274 0.452063C-0.0187859 0.35868 -0.0301363 0.195646 0.0632469 0.0878172C0.157662 -0.0194961 0.32018 -0.0292987 0.427493 0.0630526L7.05203 5.84146C7.3817 6.12883 7.93891 6.12883 8.26807 5.84146L14.8843 0.0723394C14.9911 -0.0210438 15.1537 -0.0107253 15.2486 0.097104C15.342 0.204933 15.3311 0.367451 15.2238 0.46135L8.60755 6.23047C8.34598 6.45851 8.0034 6.57253 7.66031 6.57253Z" transform="translate(0.339722 0.411133)" fill="#607D8B"/>
</svg>
