<svg width="63" height="63" viewBox="0 0 63 63" fill="none" xmlns="http://www.w3.org/2000/svg">
<path d="M52.3638 43.4521H6.18196L0 0H58.5457L52.3638 43.4521Z" transform="translate(1.16895 18.6265)" fill="#FFB655"/>
<path d="M0 0L1.04722 7.36026H55.61L56.6571 0H0Z" transform="translate(2.11487 25.2634)" fill="#E0E0E2"/>
<path d="M49.1175 7.36038L50.1647 0H0L1.04721 7.36038H49.1175Z" transform="translate(5.36011 48.0811)" fill="#E0E0E2"/>
<path d="M10.0034 0H4.45523C3.6244 0.655602 3.10457 1.06585 2.27375 1.72157L0 17.703H9.98198L12.1847 2.22004C11.3093 1.32892 10.879 0.891116 10.0034 0ZM6.75987 6.6531C5.79586 6.6531 5.01433 5.95271 5.01433 5.08879C5.01433 4.22487 5.79586 3.52448 6.75987 3.52448C7.72388 3.52448 8.50541 4.22487 8.50541 5.08879C8.50541 5.95271 7.72388 6.6531 6.75987 6.6531Z" transform="translate(49.7325 0.922852)" fill="#EE8700"/>
<path d="M0 0L6.18196 43.4521H10.3011L4.11911 0H0Z" transform="translate(1.16895 18.6265)" fill="#FF7956"/>
<path d="M0 0L1.04722 7.36026H5.16633L4.11911 0H0Z" transform="translate(2.11487 25.2634)" fill="#C6C5CA"/>
<path d="M0 0L1.04721 7.36038H5.16632L4.11911 0H0Z" transform="translate(5.36011 48.0811)" fill="#C6C5CA"/>
<path d="M5.01433 5.08879C5.01433 4.42691 5.47293 3.86114 6.121 3.63263L6.39286 1.72157C7.22368 1.06597 7.74351 0.655725 8.57434 0H4.45523C3.6244 0.655602 3.10457 1.06585 2.27375 1.72157L0 17.703H4.11911L5.73366 6.35434C5.29772 6.06998 5.01433 5.60904 5.01433 5.08879Z" transform="translate(49.7325 0.922852)" fill="#FF3501"/>
<path d="M2.05956 0H0V1.84573H2.05956V0Z" transform="translate(13.2349 50.8382)" fill="black"/>
<path d="M2.05955 0H0V1.84573H2.05955V0Z" transform="translate(16.6647 50.8382)" fill="black"/>
<path d="M2.05955 0H0V1.84573H2.05955V0Z" transform="translate(20.0946 50.8382)" fill="black"/>
<path d="M2.05955 0H0V1.84573H2.05955V0Z" transform="translate(9.79736 50.8382)" fill="black"/>
<path d="M16.9817 0H0V1.84573H16.9817V0Z" transform="translate(31.3069 28.0204)" fill="white"/>
<path d="M2.05955 0H0V1.84573H2.05955V0Z" transform="translate(49.6635 28.0204)" fill="white"/>
<path d="M2.05955 0H0V1.84573H2.05955V0Z" transform="translate(53.0933 28.0204)" fill="white"/>
<path d="M2.05955 0H0V1.84573H2.05955V0Z" transform="translate(47.2334 50.8382)" fill="white"/>
<path d="M8.01578 0H0V1.84573H8.01578V0Z" transform="translate(37.8436 50.8382)" fill="white"/>
<path d="M2.05955 0H0V1.84573H2.05955V0Z" transform="translate(50.6632 50.8382)" fill="white"/>
<path d="M2.05617 0H0V10.6415H2.05617V0Z" transform="matrix(0.993566 0.113545 -0.140879 0.99006 56.3539 34.9689)" fill="black"/>
<path d="M2.05631 0H0V10.6415H2.05631V0Z" transform="matrix(-0.993566 0.113545 -0.140879 -0.99006 6.02917 45.501)" fill="black"/>
<path d="M5.55064 2.48718C5.55064 1.11568 4.3057 0 2.77532 0C1.24493 0 0 1.11568 0 2.48718C0 3.85867 1.24493 4.97435 2.77532 4.97435C4.3057 4.97435 5.55064 3.85867 5.55064 2.48718ZM2.05969 2.48718C2.05969 2.13341 2.38084 1.84573 2.77545 1.84573C3.17006 1.84573 3.49122 2.13341 3.49122 2.48718C3.49122 2.84094 3.17006 3.12863 2.77545 3.12863C2.38084 3.12863 2.05969 2.84094 2.05969 2.48718Z" transform="translate(53.7161 3.52612)" fill="black"/>
<path d="M56.677 0.233423L54.6341 0L53.7431 6.26267H0L0.742126 11.4787L2.7852 11.2453L2.33897 8.1084H13.7987V12.9H0.944375L2.25425 22.106H13.7989V35.7169H4.19051L5.50039 44.9229H13.7987V49.7146H8.25827L7.7788 46.3443L5.73572 46.5777L6.44462 51.5603H54.4401L55.1488 46.5777L53.1059 46.3443L52.6263 49.7146H47.0858V44.923H55.3842L56.6938 35.717H36.6767V22.106H45.0264V29.9761H47.086V22.106H58.6306L59.9402 12.9H47.086V8.10827H58.5457L58.0995 11.2451L60.1424 11.4786L60.8847 6.26255H55.8193L56.677 0.233423ZM26.2674 12.9V8.10827H34.6171V12.8999L26.2674 12.9ZM15.8582 8.10827H24.2079V12.8999H15.8582V8.10827ZM15.8582 44.923H24.2079V49.7146H15.8582V44.923ZM34.6171 44.923V49.7146H26.2674V44.923H34.6171ZM45.0264 49.7146H36.6767V44.923H45.0264V49.7146ZM53.5707 43.0773H7.31389L6.52934 37.5627H54.3552L53.5707 43.0773ZM34.6171 35.7169H26.2674V25.5795H24.2079V35.7169H15.8582V22.106H34.6171V35.7169ZM56.8169 20.2603H4.06776L3.80674 18.4259H12.5088V16.5802H3.54408L3.28307 14.7457H57.6014L56.8169 20.2603ZM45.0264 12.9H36.6767V8.10827H45.0264V12.9Z" transform="translate(0 11.4396)" fill="black"/>
<path d="M3.70075 11.1004H5.7603C5.7603 8.76621 4.65144 7.56686 3.67301 6.50852C2.77148 5.53336 2.05942 4.76308 2.05942 3.09417C2.05942 2.24736 2.24931 1.55496 2.65696 0.915234L0.868584 0C0.275981 0.93 0 1.91316 0 3.09417C0 5.4284 1.10886 6.62776 2.08729 7.68609C2.98869 8.66125 3.70075 9.43153 3.70075 11.1004Z" transform="translate(24.8856 4.9104)" fill="black"/>
<path d="M1.92568 2.18435C2.26318 1.81939 2.61207 1.442 2.9291 1.00334L1.20045 0C0.949042 0.347858 0.653153 0.667906 0.339689 1.00678C0.225864 1.12983 0.112177 1.25288 0 1.37777L1.60426 2.53529C1.71039 2.41716 1.81804 2.30088 1.92568 2.18435Z" transform="translate(26.6312 2.4071)" fill="black"/>
<path d="M2.31659 0H0.257032C0.257032 0.566638 0.173003 1.06068 0 1.51005L1.94696 2.112C2.19576 1.46575 2.31659 0.774836 2.31659 0Z" transform="translate(28.3308)" fill="black"/>
<path d="M3.70088 16.0124H5.76044C5.76044 13.6782 4.65157 12.4788 3.67315 11.4205C2.77175 10.4453 2.05955 9.67505 2.05955 8.00614C2.05955 6.33724 2.77175 5.56695 3.67315 4.5918C4.65157 3.53358 5.76044 2.33423 5.76044 0H3.70088C3.70088 1.66891 2.98869 2.43919 2.08729 3.41435C1.10886 4.47269 0 5.67204 0 8.00627C0 10.3405 1.10886 11.5398 2.08729 12.5982C2.98883 13.5732 3.70088 14.3435 3.70088 16.0124Z" transform="translate(33.7448)" fill="black"/>
<path d="M2.57609 0.915357L0.787711 0C0.378546 0.642066 0.120965 1.3144 0 2.05577L2.03786 2.32278C2.12203 1.80672 2.29311 1.35956 2.57609 0.915357Z" transform="translate(16.111 4.9104)" fill="black"/>
<path d="M2.41009 1.47326C2.20125 1.0309 2.08578 0.549042 2.05722 0L0 0.0858875C0.0400927 0.856663 0.208016 1.54573 0.513516 2.19248L2.41009 1.47326Z" transform="translate(16.0417 8.28271)" fill="black"/>
<path d="M1.92568 2.18435C2.26318 1.81939 2.61207 1.442 2.9291 1.00334L1.20045 0C0.949044 0.347858 0.653153 0.667906 0.339689 1.00678C0.225864 1.12983 0.112177 1.25288 0 1.37777L1.60426 2.53529C1.71039 2.41716 1.81818 2.30088 1.92568 2.18435Z" transform="translate(17.7798 2.4071)" fill="black"/>
<path d="M1.67428 0L0 1.0747C0.252364 1.39045 0.517772 1.67752 0.774392 1.95499C0.959478 2.15519 1.13427 2.34432 1.30081 2.5396L2.93747 1.41924C2.74621 1.19492 2.55 0.982664 2.36025 0.77742C2.11557 0.512866 1.88449 0.262954 1.67428 0Z" transform="translate(17.3414 10.6437)" fill="black"/>
<path d="M2.31672 0H0.25717C0.25717 0.566638 0.17314 1.06068 0 1.50993L1.94696 2.112C2.19576 1.46588 2.31672 0.774959 2.31672 0Z" transform="translate(19.4717)" fill="black"/>
<path d="M2.48726 2.09072C2.41119 1.32954 2.20249 0.645635 1.84907 0L0 0.812858C0.240281 1.25165 0.382803 1.72342 0.435939 2.25511L2.48726 2.09072Z" transform="translate(19.2717 13.2507)" fill="black"/>
<path d="M11.14 0H4.7378L1.97264 2.18202L0 16.0481L2.04294 16.2816L3.91741 3.10673L5.51521 1.84573H10.2095L11.7758 3.43994L9.98211 16.0481L12.0249 16.2816L13.9365 2.84599L11.14 0Z" transform="translate(49.0635)" fill="black"/>
</svg>
