<svg width="20" height="15" viewBox="0 0 20 15" fill="none" xmlns="http://www.w3.org/2000/svg">
<path d="M9.54857 2.16571L7.07429 0L0 6.06429C0.257143 6.30286 0.604286 6.45143 0.987143 6.45143H18.11C18.4914 6.45143 18.8371 6.30286 19.0929 6.06429L12.0229 0L9.54857 2.16571Z" transform="translate(0.451538 7.83435)" fill="#607D8B"/>
<path d="M19.0943 0.387143C18.8371 0.147143 18.4914 0 18.1071 0H0.984286C0.602857 0 0.257143 0.148571 0 0.39L9.54571 8.57143L19.0943 0.387143Z" transform="translate(0.454224)" fill="#607D8B"/>
<path d="M0 0V11.8686L6.90429 6.00143L0 0Z" transform="translate(0 1.25439)" fill="#607D8B"/>
<path d="M0 6.00571L6.90429 11.8729V0L0 6.00571Z" transform="translate(13.0957 1.25)" fill="#607D8B"/>
</svg>
