<?xml version="1.0" encoding="utf-8"?>
<!-- Generator: Adobe Illustrator 23.0.5, SVG Export Plug-In . SVG Version: 6.00 Build 0)  -->
<svg version="1.1" id="Слой_1" xmlns="http://www.w3.org/2000/svg" xmlns:xlink="http://www.w3.org/1999/xlink" x="0px" y="0px"
	 viewBox="0 0 1221.3 1565.7" style="enable-background:new 0 0 1221.3 1565.7;" xml:space="preserve">
<style type="text/css">
	.st0{fill:#FFFFFF;}
</style>
<g id="XMLID_2_">
	<g>
		<rect y="0" width="1221.3" height="1565.7"/>
	</g>
	<g>
	</g>
</g>
<title>mask</title>
<g id="XMLID_1_">
	<g>
		<path class="st0" d="M1217.6,1100.2c11.5,21.7-6.6,36.1-11.6,42.9c3.9,14.8-2.9,23.2-11.5,23.2c-18.1,70.6-115.5,53.2-153,49
			c-103.2,25.7-214.5,15.6-214.5,15.6s-4.6,22.8-18.6,34.1c-23.4,45.7-5.4,95.4-5.5,149.1c26.2,103.9-54,121-54,121
			s-24.6,26.8-46,28c-11.9,0.7-165,9.2-261-61c-76.6-56-101.5-191.1-102-209c-1.3-40.3,31.2-47,59.4-100.8s100.4-255.9,113.7-282
			c-12.9-4.5-37.6-38.7-82.4-84.6s-48.7-83.7-60.9-122.5c7.1-30.4,45.8-8.6,72,5.2c29.9-21.8,92.8,26,92.8,26l68.3,15.6
			c-11.2-13.9-23.9-26.6-37.9-37.8c-139.1-52.6-138.6-107.8-146.3-121.8c-7.1-3.6-28.8-19.2-60.9-44.5
			c-32.1-25.4-125.8-26.5-199.7-31.2c-61.4,10.9-89.7,10.1-115.1,8.2S5.3,547.3,0.7,537.5c-5.8-26.3,25.5-38.9,26-77.9
			C26.6,434.9,8.3,373,20,363.1c4-3.1,40.8,89.8,40.8,89.8s0.7,13.7,57.2,1.5c67.2-22.6,31.2-84.6,31.2-84.6s-0.9,2.7-8.9-17.1
			c-8-19.8-32.2-35.7-61.7-40.1c-28.9-1.3-65.3-23-65.3-23l-6.7-8.9l8.2-11.9c0,0,26,13.1,45.3,13.4c19.3,0.3,57-16.2,80.9-26.7
			c22.1-18.1,33.6-59.5,43.1-92.8c26-82.5,35.8-90.8,41.6-98s20.8-31.7,33.4-34.1c7.9,10.5-17.9,46.7-28.2,80.2
			c-10.3,33.4,5.4,126.7,6.7,135.8s5.5,15.8,25.2,37.9s39.7,10.3,50.5,4.5s11.7-22,14.1-27.5c2.5-5.5,10-8.4,19.3-37.1
			c4.2-31.9-17.6-62.6-23.8-67.5c-93.9-40.8-74.6-74-70.5-75.7c4.1-1.7,35,27.1,52,34.9c-10-5.9-9.8-15.9-11.1-25.2
			c-1.3-9.4,8.9-5.2,8.9-5.2s3.6,7.7,11.9,24.5s33.8,20.3,42.3,20c8.5-0.3,25.9-23.6,36.4-35.6c10.5-12.1,27.3-52.7,32.7-61.6
			s9.2-14,12.6-23.8c11-11.1,18.6,3,18.6,3S460,5.6,464-0.6c14-6.2,11.1,9.6,11.1,9.6s-41.7,84.3-47.5,112.8
			c-1.4,22.5-11.1,189.3-11.1,189.3s-0.9,37.4-5.2,68.3c2.3,20,8,50.1,42.3,60.9c35.8,0,47.1-150.8,54.9-181.1
			c7.9-30.3,22.7-79.7,25.3-91.3c2.6-11.6,1.6-41.7,8.9-42.3c7.3-0.6,6.4,16.8,7.4,37.1c4,21.3-4.2,56.1-7.4,65.3
			c-1.7,7-9.4,91.5-13.4,118c-0.8,29-13.1,91.6-15.6,109.1c-2.5,17.5-12.6,87-14.9,113.6c18.9,12,63.9,22.6,89.8,3.7
			c21.8-10.8,46.5-79.3,51.2-92s13.9-45.7,23.8-57.9c14.6,18.7,1.2,77.9-17.1,121.7c-15.5,37.2-34.8,61-40.8,66.1
			c-2.5,16.2,21.6,44.2,31.2,55.7c12-1.5,88.8-55.9,98.7-62.4c9.9-6.4,12.2-21,15.6-20c9.9,44.4-72,101.7-72,101.7
			s60,19.6,94.3,27.5c35.1-3,115-34.4,125.5-40.1s5.4-44.3,4.5-68.3c-0.9-24-13.2-32.6-20.8-35.6c-7.6-3.1-10.1-11.3,0.7-10.4
			c40.1,0.5,47.1,63.6,50.5,80.2c4.4-9.7,21-59.7,21.5-76.5c0.5-16.8,6.2-12.9,8.9-5.2c16.5,79.1-13.2,117-37.9,138.8
			c-22,49.1-80.4,68.9-90.6,72.7c12.5,4,65,69.5,73.5,79.4c20.4,7.2,102.7,92.3,113.5,101.6c10.8,9.3,87.7,69.6,106.2,86.1
			c18.4,6.8,58.9,40.8,66.8,46C1204.7,1082.9,1214,1094.3,1217.6,1100.2z"/>
	</g>
	<g>
	</g>
</g>
</svg>
