<svg id="Слой_1" data-name="Слой 1" xmlns="http://www.w3.org/2000/svg" viewBox="0 0 1221.33 1565.66"><defs><style>.cls-1{fill:#fff;}</style></defs><title>mask</title><path class="cls-1" d="M1229.55,1114.14c11.48,21.67-6.63,36.07-11.55,42.86,3.92,14.82-2.88,23.17-11.46,23.2-18.07,70.64-115.52,53.2-153,49C950.37,1254.88,839,1244.77,839,1244.77s-4.6,22.82-18.56,34.14c-23.36,45.66-5.38,95.42-5.46,149.09,26.21,103.85-54,121-54,121s-24.58,26.83-46,28c-11.91.65-165,9.2-261-61-76.6-56-101.45-191.12-102-209-1.25-40.3,31.2-47,59.37-100.83S511.76,950.3,525,924.13c-12.94-4.54-37.56-38.66-82.42-84.62s-48.74-83.66-60.88-122.46c7.1-30.35,45.78-8.56,72,5.19,29.88-21.81,92.81,26,92.81,26l68.3,15.59A248.57,248.57,0,0,0,576.94,726C437.83,673.42,438.35,618.2,430.68,604.23c-7.08-3.61-28.78-19.15-60.88-44.54S244,533.16,170.08,528.52C108.71,539.4,80.35,538.58,55,536.69s-37.75,24.6-42.32,14.84c-5.76-26.33,25.45-38.86,26-77.93C38.53,448.92,20.29,387,32,377.11c3.95-3.15,40.84,89.8,40.84,89.8s.74,13.71,57.16,1.49c67.17-22.55,31.19-84.61,31.19-84.61s-.87,2.68-8.91-17.07S120.07,331,90.63,326.64c-28.89-1.31-65.33-23-65.33-23l-6.68-8.91,8.16-11.88s26,13.1,45.29,13.36,57-16.2,80.93-26.72c22.07-18.09,33.62-59.46,43.06-92.78,26-82.52,35.82-90.78,41.58-98S258.39,47,271.05,44.59c7.91,10.54-17.94,46.74-28.21,80.16s5.41,126.69,6.68,135.83,5.45,15.83,25.24,37.85,39.74,10.32,50.49,4.45,11.65-22,14.1-27.46,10-8.42,19.31-37.11c4.23-31.88-17.61-62.6-23.76-67.54-93.85-40.83-74.6-74-70.53-75.71s35,27.08,52,34.88c-10-5.91-9.84-15.87-11.14-25.23s8.91-5.2,8.91-5.2S317.69,107.2,326,124s33.81,20.27,42.32,20,25.92-23.56,36.38-35.63S432,55.63,437.36,46.81s9.22-14,12.62-23.75c11-11.11,18.56,3,18.56,3S472,19.57,476,13.42c14-6.17,11.14,9.64,11.14,9.64s-41.72,84.34-47.52,112.82c-1.37,22.45-11.13,189.27-11.13,189.27s-.93,37.36-5.2,68.29c2.34,20,8,50.1,42.32,60.86,35.82,0,47.06-150.82,54.94-181.11s22.65-79.66,25.25-91.29,1.59-41.72,8.9-42.31,6.38,16.75,7.43,37.11c4,21.31-4.17,56.14-7.43,65.32-1.65,7-9.38,91.49-13.36,118-.75,29-13.12,91.57-15.59,109.1s-12.6,87-14.85,113.56c18.93,12,63.89,22.57,89.84,3.72,21.8-10.8,46.51-79.33,51.22-92s13.87-45.74,23.76-57.9c14.61,18.74,1.19,77.88-17.07,121.73-15.52,37.24-34.77,60.95-40.84,66.06-2.46,16.22,21.61,44.22,31.19,55.67,12-1.45,88.8-55.93,98.74-62.35s12.2-21,15.59-20c9.94,44.37-72,101.68-72,101.68s60,19.57,94.29,27.46c35.13-3,115-34.38,125.47-40.08s5.38-44.27,4.46-68.28-13.2-32.57-20.79-35.63-10.07-11.26.74-10.39c40.08.5,47.1,63.62,50.48,80.16,4.39-9.71,21-59.65,21.54-76.45s6.16-12.92,8.91-5.19c16.52,79.08-13.15,117-37.87,138.8-22,49.08-80.41,68.86-90.58,72.73,12.48,4,65,69.54,73.51,79.42C941.88,869,1024.19,954.15,1035,963.47s87.74,69.63,106.17,86.09c18.37,6.75,58.91,40.77,66.82,46C1216.64,1096.92,1226,1108.32,1229.55,1114.14Z" transform="translate(-11.97 -11.99)"/></svg>