<svg width="181" height="9" viewBox="0 0 181 9" fill="none" xmlns="http://www.w3.org/2000/svg">
<path d="M90.4246 5.86036C87.8573 5.86036 86.6538 4.74943 85.1303 3.34294C83.4331 1.77602 81.5094 0 77.7289 0C73.9484 0 72.0247 1.77602 70.3273 3.34294C68.804 4.74943 67.6007 5.86036 65.0334 5.86036C62.4661 5.86036 61.2628 4.74943 59.7395 3.34294C58.0421 1.77602 56.1186 0 52.3381 0C48.5576 0 46.6341 1.77602 44.9367 3.34312C43.4136 4.74961 42.2102 5.86036 39.6432 5.86036C37.0763 5.86036 35.8731 4.74943 34.3498 3.34312C32.6526 1.7762 30.729 0 26.9488 0C23.1685 0 21.2449 1.77602 19.5475 3.34294C18.0244 4.74943 16.8211 5.86036 14.254 5.86036C11.6869 5.86036 10.4836 4.74943 8.96028 3.34294C7.2629 1.7762 5.33934 0 1.55904 0C0.697779 0 0 0.702882 0 1.56964C0 2.43639 0.697779 3.13927 1.55904 3.13927C4.12613 3.13927 5.32946 4.25021 6.85257 5.65652C8.54977 7.22344 10.4735 8.99964 14.254 8.99964C18.0343 8.99964 19.9578 7.22362 21.6552 5.65688C23.1783 4.25039 24.3817 3.13946 26.9488 3.13946C29.5157 3.13946 30.7188 4.25039 32.2421 5.6567C33.9393 7.22362 35.8629 8.99982 39.6432 8.99982C43.4235 8.99982 45.347 7.22399 47.0444 5.65706C48.5677 4.25057 49.771 3.13964 52.3381 3.13964C54.9052 3.13964 56.1085 4.25057 57.6318 5.65688C59.3292 7.2238 61.2529 9 65.0332 9C68.8135 9 70.7373 7.22416 72.4346 5.65724C73.9583 4.25075 75.1614 3.13982 77.7289 3.13982C80.2962 3.13982 81.4997 4.25075 83.0231 5.65724C84.7203 7.22416 86.6441 9 90.4246 9C91.2858 9 91.9836 8.29712 91.9836 7.43036C91.9838 6.56324 91.2858 5.86036 90.4246 5.86036Z" fill="white"/>
<path d="M179.441 3.13964C176.874 3.13964 175.67 4.25057 174.147 5.65706C172.449 7.22398 170.526 9 166.745 9C162.965 9 161.041 7.22398 159.344 5.65706C157.82 4.25057 156.617 3.13964 154.05 3.13964C151.483 3.13964 150.279 4.25057 148.756 5.65706C147.059 7.22398 145.135 9 141.354 9C137.574 9 135.65 7.22398 133.953 5.65688C132.43 4.25039 131.227 3.13964 128.66 3.13964C126.093 3.13964 124.89 4.25057 123.366 5.65688C121.669 7.2238 119.745 9 115.965 9C112.185 9 110.261 7.22398 108.564 5.65706C107.041 4.25057 105.837 3.13964 103.27 3.13964C100.703 3.13964 99.5 4.25057 97.9767 5.65706C96.2793 7.2238 94.3557 9 90.5754 9C89.7142 9 89.0164 8.29712 89.0164 7.43036C89.0164 6.56361 89.7142 5.86073 90.5754 5.86073C93.1425 5.86073 94.3459 4.74979 95.869 3.34348C97.5662 1.77656 99.4899 0.000361552 103.27 0.000361552C107.051 0.000361552 108.974 1.77638 110.672 3.34312C112.195 4.74961 113.398 5.86054 115.965 5.86054C118.532 5.86054 119.735 4.74961 121.258 3.3433C122.956 1.77638 124.879 0.000182156 128.66 0.000182156C132.44 0.000182156 134.363 1.77601 136.061 3.34294C137.584 4.74943 138.787 5.86036 141.354 5.86036C143.922 5.86036 145.125 4.74943 146.648 3.34312C148.346 1.7762 150.269 0 154.05 0C157.83 0 159.754 1.77584 161.451 3.34276C162.975 4.74925 164.178 5.86018 166.745 5.86018C169.313 5.86018 170.516 4.74925 172.04 3.34276C173.737 1.77584 175.66 0 179.441 0C180.302 0 181 0.702884 181 1.56964C181 2.43676 180.302 3.13964 179.441 3.13964Z" fill="white"/>
</svg>
